<svg xmlns="http://www.w3.org/2000/svg" viewBox="0 0 512 512" width="512" height="512">
  <rect width="512" height="512" rx="96" fill="#1A3A5C"/>
  <g transform="translate(64, 100)" stroke="#FFFFFF" fill="none">
    <!-- Upper gum -->
    <path d="M26 100C26 42 84 10 192 10s166 32 166 90v20c0 10-8 18-18 18H44c-10 0-18-8-18-18v-20z" stroke-width="10"/>
    <!-- Upper teeth -->
    <rect x="50" y="126" width="34" height="44" rx="14" stroke-width="9"/>
    <rect x="92" y="126" width="34" height="52" rx="14" stroke-width="9"/>
    <rect x="138" y="126" width="38" height="58" rx="16" stroke-width="9"/>
    <rect x="186" y="126" width="38" height="58" rx="16" stroke-width="9"/>
    <rect x="234" y="126" width="34" height="52" rx="14" stroke-width="9"/>
    <rect x="276" y="126" width="34" height="44" rx="14" stroke-width="9"/>
    <!-- Lower gum -->
    <path d="M26 240c0 32 58 52 166 52s166-20 166-52v-20c0-10-8-18-18-18H44c-10 0-18 8-18 18v20z" stroke-width="10"/>
    <!-- Lower teeth -->
    <rect x="72" y="186" width="34" height="42" rx="14" stroke-width="9"/>
    <rect x="114" y="180" width="36" height="50" rx="15" stroke-width="9"/>
    <rect x="162" y="178" width="38" height="52" rx="16" stroke-width="9"/>
    <rect x="210" y="180" width="36" height="50" rx="15" stroke-width="9"/>
    <rect x="254" y="186" width="34" height="42" rx="14" stroke-width="9"/>
  </g>
</svg>
