<svg xmlns="http://www.w3.org/2000/svg" viewBox="0 0 192 192" width="192" height="192">
  <rect width="192" height="192" rx="40" fill="#1A3A5C"/>
  <g transform="translate(20, 30)" stroke="#FFFFFF" fill="none">
    <!-- Upper jaw -->
    <path d="M14 54C14 24 40 8 76 8s62 16 62 46" stroke-width="5" stroke-linecap="round"/>
    <path d="M14 54c0 6 4 10 10 10h104c6 0 10-4 10-10" stroke-width="5"/>
    <!-- Upper teeth -->
    <path d="M26 64c0 0 1 18 8 18s8-18 8-18" stroke-width="4" stroke-linecap="round"/>
    <path d="M44 64c0 0 1 21 9 21s9-21 9-21" stroke-width="4" stroke-linecap="round"/>
    <path d="M64 64c0 0 1 24 10 24s10-24 10-24" stroke-width="4" stroke-linecap="round"/>
    <path d="M86 64c0 0 1 24 10 24s10-24 10-24" stroke-width="4" stroke-linecap="round"/>
    <path d="M108 64c0 0 1 21 9 21s9-21 9-21" stroke-width="4" stroke-linecap="round"/>
    <!-- Lower jaw -->
    <path d="M22 100c0 18 22 32 54 32s54-14 54-32" stroke-width="5" stroke-linecap="round"/>
    <path d="M22 100c0-6 4-10 10-10h88c6 0 10 4 10 10" stroke-width="5"/>
    <!-- Lower teeth -->
    <path d="M36 90c0 0 1-16 7-16s7 16 7 16" stroke-width="4" stroke-linecap="round"/>
    <path d="M52 90c0 0 1-20 8-20s8 20 8 20" stroke-width="4" stroke-linecap="round"/>
    <path d="M70 90c0 0 1-22 9-22s9 22 9 22" stroke-width="4" stroke-linecap="round"/>
    <path d="M90 90c0 0 1-20 8-20s8 20 8 20" stroke-width="4" stroke-linecap="round"/>
    <path d="M108 90c0 0 1-16 7-16s7 16 7 16" stroke-width="4" stroke-linecap="round"/>
  </g>
</svg>
