<svg xmlns="http://www.w3.org/2000/svg" viewBox="0 0 512 512" width="512" height="512">
  <rect width="512" height="512" rx="96" fill="#1A3A5C"/>
  <g transform="translate(52, 80)" stroke="#FFFFFF" fill="none">
    <!-- Upper jaw -->
    <path d="M38 144C38 64 106 22 204 22s166 42 166 122" stroke-width="12" stroke-linecap="round"/>
    <path d="M38 144c0 16 10 26 26 26h280c16 0 26-10 26-26" stroke-width="12"/>
    <!-- Upper teeth -->
    <path d="M70 170c0 0 2 48 22 48s22-48 22-48" stroke-width="10" stroke-linecap="round"/>
    <path d="M118 170c0 0 2 56 24 56s24-56 24-56" stroke-width="10" stroke-linecap="round"/>
    <path d="M170 170c0 0 2 64 26 64s26-64 26-64" stroke-width="10" stroke-linecap="round"/>
    <path d="M226 170c0 0 2 64 26 64s26-64 26-64" stroke-width="10" stroke-linecap="round"/>
    <path d="M282 170c0 0 2 56 24 56s24-56 24-56" stroke-width="10" stroke-linecap="round"/>
    <!-- Lower jaw -->
    <path d="M58 268c0 48 58 86 146 86s146-38 146-86" stroke-width="12" stroke-linecap="round"/>
    <path d="M58 268c0-16 10-26 26-26h240c16 0 26 10 26 26" stroke-width="12"/>
    <!-- Lower teeth -->
    <path d="M96 242c0 0 2-42 18-42s18 42 18 42" stroke-width="10" stroke-linecap="round"/>
    <path d="M138 242c0 0 2-52 22-52s22 52 22 52" stroke-width="10" stroke-linecap="round"/>
    <path d="M186 242c0 0 2-58 24-58s24 58 24 58" stroke-width="10" stroke-linecap="round"/>
    <path d="M238 242c0 0 2-52 22-52s22 52 22 52" stroke-width="10" stroke-linecap="round"/>
    <path d="M286 242c0 0 2-42 18-42s18 42 18 42" stroke-width="10" stroke-linecap="round"/>
  </g>
</svg>
